<svg width="7" height="7" viewBox="0 0 7 7" fill="none" xmlns="http://www.w3.org/2000/svg">
<path d="M0.722271 0.0155272C0.123688 0.139648 -0.171893 0.703227 0.108847 1.18965C0.152133 1.26457 0.200366 1.31601 1.12421 2.26984C1.46308 2.61872 1.64735 2.80994 1.81555 2.98438C1.8947 3.06601 2.0394 3.21473 2.13587 3.31425C2.23357 3.41265 2.31272 3.49652 2.31272 3.49987C2.31272 3.50323 2.23357 3.58709 2.13587 3.6855C2.0394 3.78502 1.8947 3.93374 1.81555 4.01537C1.57686 4.26249 1.38022 4.46601 1.1576 4.69524C1.04135 4.81489 0.926333 4.93342 0.902835 4.95802C0.879337 4.98374 0.723507 5.14364 0.556547 5.31585C0.201603 5.68038 0.144713 5.743 0.0989532 5.82575C0.00990787 5.98677 -0.0210107 6.1847 0.0185651 6.34572C0.0940063 6.65434 0.317856 6.8724 0.655487 6.96856C0.787818 7.00546 1.00548 7.00546 1.13782 6.96856C1.25531 6.93502 1.3728 6.87911 1.45689 6.8176C1.52368 6.7684 1.54347 6.74827 1.81802 6.46201C1.90212 6.37367 2.06661 6.20259 2.1841 6.08294C2.30035 5.96329 2.5007 5.75642 2.62809 5.62447C3.28109 4.94572 3.48762 4.73549 3.49999 4.73549C3.51112 4.73549 3.75105 4.97926 4.37189 5.62447C4.49928 5.75642 4.63779 5.89955 4.67984 5.94316C4.83443 6.10195 5.28956 6.57272 5.37118 6.65882C5.58019 6.88022 5.79044 6.9831 6.06005 6.99652C6.36923 7.01105 6.67842 6.8724 6.84414 6.64316C7.03089 6.38374 7.0482 6.08294 6.89361 5.81457C6.84414 5.72958 6.84167 5.72623 6.43354 5.30466C6.2604 5.12687 6.05139 4.91105 5.96729 4.82495C5.88443 4.73885 5.70757 4.55658 5.57648 4.42128C5.44415 4.28486 5.26977 4.10482 5.18814 4.01984C5.10652 3.93486 4.96058 3.78502 4.86412 3.6855C4.76641 3.58709 4.68726 3.50323 4.68726 3.49987C4.68726 3.49652 4.76394 3.41601 4.85793 3.31984C4.95069 3.22479 5.09539 3.07607 5.17701 2.98997C5.35758 2.80435 5.55669 2.59859 5.84238 2.3045C5.95863 2.18486 6.08725 2.05179 6.1293 2.00818C6.17012 1.96457 6.34821 1.78006 6.52506 1.5978C6.75757 1.35738 6.85898 1.24444 6.89114 1.18965C7.04573 0.922396 7.03212 0.62607 6.85403 0.37C6.69078 0.134058 6.37418 -0.0124283 6.06005 0.00322676C5.78796 0.0166454 5.57895 0.120639 5.365 0.346518C5.26235 0.456102 4.92101 0.810575 4.712 1.02415C4.63408 1.10466 4.51907 1.22208 4.45723 1.28693C3.71518 2.05626 3.51112 2.26425 3.49999 2.26425C3.49133 2.26425 3.41095 2.18374 3.00529 1.76665C2.83091 1.58661 2.42897 1.17064 2.36219 1.10019C2.33869 1.07559 2.18534 0.916805 2.02085 0.747955C1.8576 0.579105 1.68322 0.399074 1.63375 0.346518C1.47421 0.176549 1.33446 0.0870924 1.144 0.0334187C1.03269 0.00210857 0.829867 -0.00683737 0.722271 0.0155272Z" fill="black"/>
</svg>
